<svg width="100" height="100" viewBox="0 0 100 100" fill="none" xmlns="http://www.w3.org/2000/svg">
<g clip-path="url(#clip0_186_60)">
<path fill-rule="evenodd" clip-rule="evenodd" d="M85.089 70.0569H14.5772C13.3937 70.0569 12.4356 69.0855 12.4356 67.8869V31.7801C12.4356 30.5816 13.3937 29.6101 14.5772 29.6101H85.089C86.2725 29.6101 87.2306 30.5816 87.2306 31.7801V67.8869C87.2306 69.0855 86.2725 70.0569 85.089 70.0569Z" fill="#E2E8F0"/>
<path fill-rule="evenodd" clip-rule="evenodd" d="M85.089 80.3704H14.5772C13.3937 80.3704 12.4356 79.3989 12.4356 78.1997V42.1094C12.4356 40.9102 13.3937 39.9387 14.5772 39.9387H85.089C86.2725 39.9387 87.2306 40.9102 87.2306 42.1094V78.1997C87.2306 79.3989 86.2725 80.3704 85.089 80.3704Z" fill="#E2E8F0"/>
<path fill-rule="evenodd" clip-rule="evenodd" d="M61.2094 90.1365H14.5763C13.3928 90.1365 12.4347 89.1651 12.4347 87.9659V51.8755C12.4347 50.6763 13.3928 49.7049 14.5763 49.7049H61.2094C62.3929 49.7049 63.351 50.6763 63.351 51.8755V87.9659C63.351 89.1651 62.3929 90.1365 61.2094 90.1365Z" fill="#E2E8F0"/>
<path fill-rule="evenodd" clip-rule="evenodd" d="M20.6217 33.5802C13.6632 33.5802 7.99978 39.378 7.99978 46.5066C7.99978 53.6352 13.6632 59.433 20.6217 59.433H85.089C86.2725 59.433 87.2306 58.4616 87.2306 57.2631V41.7402C87.2306 40.5416 86.2725 39.5702 85.089 39.5702H20.6217V33.5802Z" fill="#E2E8F0"/>
</g>

<defs>
<clipPath id="clip0_186_60">
<rect width="84" height="81" fill="white" transform="translate(8 10)"/>
</clipPath>
</defs>
</svg>